<?xml version="1.0" standalone="no"?>
<!DOCTYPE svg PUBLIC "-//W3C//DTD SVG 20010904//EN"
 "http://www.w3.org/TR/2001/REC-SVG-20010904/DTD/svg10.dtd">
<svg version="1.0" xmlns="http://www.w3.org/2000/svg"
 width="1414.000000pt" height="2000.000000pt" viewBox="0 0 1414.000000 2000.000000"
 preserveAspectRatio="xMidYMid meet">

<g transform="translate(0.000000,2000.000000) scale(0.100000,-0.100000)"
fill="#000000" stroke="none">
<path d="M2731 17299 c-63 -12 -138 -38 -196 -67 -62 -31 -164 -103 -190 -134
-16 -19 -15 -19 10 3 98 86 239 158 364 184 92 19 248 19 331 -1 106 -24 241
-96 312 -165 63 -59 63 -59 16 -29 -157 103 -376 156 -572 139 -208 -18 -378
-93 -533 -234 -35 -31 -63 -53 -63 -48 0 4 26 37 57 73 32 36 47 56 34 45 -49
-41 -140 -166 -174 -239 -103 -215 -124 -382 -73 -569 32 -118 76 -223 116
-282 59 -86 205 -189 321 -228 132 -44 322 -41 512 9 71 19 102 23 105 15 2
-6 9 -8 14 -5 6 4 8 3 5 -2 -3 -6 33 -64 80 -129 80 -114 117 -160 98 -125 -5
9 -4 12 1 7 5 -5 9 -16 9 -25 0 -9 6 -16 13 -14 8 1 11 -1 8 -6 -3 -5 2 -18
10 -28 9 -10 12 -12 8 -4 -7 13 -5 13 9 1 18 -15 23 -26 7 -16 -20 13 -9 -12
33 -67 23 -31 48 -65 55 -75 7 -10 10 -11 6 -3 -4 9 -3 12 2 7 5 -5 10 -13 10
-18 1 -5 2 -14 3 -20 0 -5 6 -7 13 -3 6 4 8 3 5 -3 -4 -6 2 -22 12 -34 l20
-24 -32 -34 -32 -35 34 28 c22 18 37 24 44 17 14 -14 45 8 40 28 -5 21 79 73
172 105 39 14 65 25 59 25 -23 2 -131 -41 -185 -73 l-56 -33 -60 91 c-75 112
-288 399 -336 453 l-36 40 73 37 c278 141 476 430 476 694 0 193 -92 375 -287
569 -68 68 -98 90 -185 132 -57 28 -130 58 -163 66 -65 16 -250 19 -324 4z
m384 -118 c128 -33 251 -99 339 -182 65 -61 84 -86 120 -163 64 -133 80 -201
81 -331 0 -90 -4 -122 -23 -177 -57 -165 -225 -352 -404 -452 -92 -50 -241
-106 -333 -123 -107 -21 -306 -8 -289 18 3 5 -10 6 -28 3 -26 -5 -30 -3 -18 6
12 9 10 10 -9 5 -17 -5 -22 -4 -16 6 6 9 2 11 -13 7 -14 -4 -20 -2 -16 4 4 6
-2 8 -17 3 -13 -4 -21 -4 -17 0 4 4 -16 19 -44 32 -113 52 -244 186 -308 313
-43 86 -52 123 -52 218 0 106 20 189 73 294 21 43 37 78 35 78 -3 0 -21 -28
-40 -62 -32 -59 -70 -162 -79 -218 -3 -16 -5 -11 -6 15 -10 316 285 644 649
721 95 20 312 12 415 -15z m-924 -274 l-23 -22 17 28 c10 15 20 25 23 22 3 -3
-5 -16 -17 -28z m36 -938 c18 -25 130 -111 187 -144 27 -16 76 -39 110 -52 54
-21 57 -23 21 -18 -131 19 -330 165 -390 285 -17 34 -17 34 21 -9 22 -25 45
-52 51 -62z"/>
<path d="M2810 16460 l0 -320 40 0 40 0 0 125 0 125 79 0 c152 0 212 23 258
98 39 64 29 177 -20 230 -49 53 -84 62 -247 62 l-150 0 0 -320z m331 222 c24
-27 29 -41 29 -87 0 -112 -31 -135 -180 -135 l-100 0 0 131 0 131 111 -4 111
-3 29 -33z"/>
<path d="M2898 15773 c6 -2 18 -2 25 0 6 3 1 5 -13 5 -14 0 -19 -2 -12 -5z"/>
<path d="M2818 15763 c12 -2 32 -2 45 0 12 2 2 4 -23 4 -25 0 -35 -2 -22 -4z"/>
<path d="M5467 16673 c-4 -3 -7 -125 -7 -270 l0 -263 30 0 30 0 0 93 1 92 32
-35 c17 -20 55 -62 82 -94 44 -51 54 -57 82 -54 l31 3 -83 99 -84 99 76 86
c75 86 75 86 47 89 -25 3 -39 -7 -106 -80 l-77 -83 -1 163 0 162 -23 0 c-13 0
-27 -3 -30 -7z"/>
<path d="M6476 16667 c-36 -26 4 -84 42 -61 24 16 27 45 6 61 -10 7 -21 13
-24 13 -3 0 -14 -6 -24 -13z"/>
<path d="M8046 16664 c-20 -19 -20 -38 -1 -54 23 -19 65 -4 65 23 0 43 -35 60
-64 31z"/>
<path d="M6018 16568 c-3 -40 -5 -43 -35 -46 -25 -2 -33 -8 -33 -23 0 -15 7
-19 35 -19 l35 0 0 -141 c0 -81 5 -149 11 -161 16 -29 74 -51 120 -43 48 8 63
25 46 50 -11 14 -17 16 -35 6 -33 -18 -69 -4 -81 31 -6 17 -11 82 -11 144 l0
114 65 0 c58 0 65 2 65 20 0 16 -8 19 -62 22 l-63 3 -3 43 c-3 37 -6 42 -27
42 -21 0 -24 -5 -27 -42z"/>
<path d="M3930 16519 c-14 -5 -35 -22 -47 -37 l-23 -27 0 33 c0 27 -3 32 -25
32 l-25 0 0 -190 0 -190 24 0 c24 0 24 1 27 128 3 106 7 133 25 162 19 33 24
35 74 36 45 1 55 4 61 22 14 36 -35 52 -91 31z"/>
<path d="M4340 16507 c-61 -32 -90 -89 -90 -177 0 -124 63 -194 175 -194 112
0 175 70 175 194 0 121 -69 200 -175 200 -24 0 -60 -10 -85 -23z m168 -61 c23
-22 27 -36 30 -99 2 -55 -1 -80 -15 -107 -40 -76 -157 -76 -195 0 -39 77 -14
205 45 230 39 17 107 5 135 -24z"/>
<path d="M4955 16520 c-50 -17 -78 -44 -70 -68 8 -28 20 -28 57 3 67 56 188
12 142 -53 -8 -12 -35 -25 -66 -32 -81 -18 -128 -41 -144 -71 -32 -64 -2 -140
63 -158 64 -18 92 -12 139 31 21 19 21 19 38 -7 12 -18 25 -25 50 -25 18 0 35
3 38 6 9 9 -3 44 -14 38 -5 -3 -15 0 -23 6 -12 10 -15 41 -15 141 0 126 -1
129 -27 159 -23 26 -37 32 -83 35 -30 2 -68 0 -85 -5z m145 -210 c0 -42 -23
-94 -51 -114 -54 -37 -129 -7 -129 52 0 39 26 60 90 72 29 6 56 12 58 15 15
15 32 2 32 -25z"/>
<path d="M7544 16516 c-17 -8 -39 -24 -48 -37 l-16 -23 0 32 c0 29 -3 32 -30
32 l-30 0 0 -190 0 -190 30 0 30 0 0 120 c0 171 26 220 115 220 76 0 85 -21
85 -199 l0 -141 31 0 31 0 -4 158 c-2 131 -6 161 -21 184 -31 46 -110 61 -173
34z"/>
<path d="M6470 16330 l0 -190 30 0 30 0 0 190 0 190 -30 0 -30 0 0 -190z"/>
<path d="M6861 16339 c38 -100 72 -186 75 -190 3 -5 22 -9 42 -9 l37 0 54 143
c30 78 62 164 73 190 l18 48 -31 -3 c-30 -3 -32 -7 -85 -148 -30 -79 -58 -148
-63 -153 -7 -7 -55 103 -107 251 -17 48 -21 52 -50 52 l-32 0 69 -181z"/>
<path d="M8040 16330 l0 -190 30 0 30 0 0 190 0 190 -30 0 -30 0 0 -190z"/>
<path d="M4050 15340 c125 -8 195 -27 310 -85 63 -32 206 -142 197 -151 -2 -3
-29 11 -58 31 -118 77 -323 135 -484 135 -228 0 -435 -83 -612 -245 -35 -31
-63 -53 -63 -49 0 4 28 39 62 78 34 39 45 55 24 36 -54 -50 -128 -151 -122
-166 3 -8 0 -13 -6 -11 -14 3 -82 -153 -111 -252 -42 -148 -23 -332 56 -521
42 -103 64 -136 135 -202 78 -72 157 -120 257 -154 72 -25 93 -28 210 -28 144
0 237 16 379 64 229 77 425 244 528 450 73 145 93 275 64 410 -35 161 -105
279 -261 436 -91 92 -110 107 -205 153 -129 62 -207 81 -325 79 l-90 -1 115
-7z m105 -105 c164 -26 273 -71 392 -161 117 -89 179 -188 225 -359 57 -213
20 -379 -128 -564 -209 -260 -585 -416 -868 -359 -38 7 -53 14 -44 19 8 6 1 7
-18 3 -21 -4 -36 -1 -46 10 -9 8 -19 12 -22 8 -4 -3 -10 -2 -14 3 -4 6 -38 26
-75 45 -129 64 -272 225 -328 367 -34 89 -33 240 5 348 15 44 41 105 57 135
16 30 23 46 14 35 -31 -38 -77 -138 -95 -209 l-19 -71 0 46 c-1 77 19 160 64
254 110 237 352 411 635 458 57 10 181 6 265 -8z m-829 -293 c-18 -16 -18 -16
-6 6 6 13 14 21 18 18 3 -4 -2 -14 -12 -24z m204 -1067 c35 -22 92 -50 125
-62 54 -21 56 -23 20 -18 -22 3 -77 24 -123 47 -95 47 -212 149 -251 218 -21
38 -12 31 70 -52 52 -53 123 -112 159 -133z"/>
<path d="M3860 14500 l0 -320 40 0 40 0 0 145 0 145 78 0 c119 0 130 -10 182
-164 l42 -126 38 0 38 0 -24 78 c-13 42 -29 95 -36 116 -7 22 -29 57 -49 78
l-36 38 35 17 c121 60 111 247 -14 299 -23 10 -78 14 -184 14 l-150 0 0 -320z
m323 232 c32 -30 41 -78 25 -128 -19 -57 -59 -74 -175 -74 l-93 0 0 116 0 116
109 -4 c98 -3 112 -5 134 -26z"/>
<path d="M4098 13823 c7 -3 16 -2 19 1 4 3 -2 6 -13 5 -11 0 -14 -3 -6 -6z"/>
<path d="M4048 13813 c6 -2 18 -2 25 0 6 3 1 5 -13 5 -14 0 -19 -2 -12 -5z"/>
<path d="M3983 13803 c9 -2 25 -2 35 0 9 3 1 5 -18 5 -19 0 -27 -2 -17 -5z"/>
<path d="M3888 13793 c12 -2 30 -2 40 0 9 3 -1 5 -23 4 -22 0 -30 -2 -17 -4z"/>
<path d="M3850 15330 c-17 -6 -9 -7 25 -3 28 3 52 7 54 9 8 7 -54 2 -79 -6z"/>
<path d="M8110 14646 c-20 -25 -8 -61 22 -64 36 -4 53 26 32 56 -18 25 -37 28
-54 8z"/>
<path d="M5005 14491 c-22 -10 -46 -26 -54 -35 -12 -15 -12 -19 2 -33 15 -16
18 -15 42 7 18 17 40 25 79 28 49 4 55 2 71 -21 10 -15 14 -34 10 -46 -6 -20
-19 -25 -125 -55 -86 -24 -123 -80 -100 -151 15 -46 54 -69 117 -69 44 -1 56
3 84 29 21 20 33 26 36 17 10 -26 36 -42 69 -42 31 0 35 3 32 23 -2 13 -10 22
-21 22 -30 0 -37 26 -37 156 0 113 -2 127 -21 148 -42 45 -115 54 -184 22z
m155 -207 c0 -48 -25 -99 -56 -113 -38 -17 -82 -13 -104 9 -40 40 -14 103 47
115 16 3 42 10 58 14 51 15 55 13 55 -25z"/>
<path d="M6780 14503 c-8 -3 -27 -17 -42 -31 l-28 -26 0 27 c0 23 -4 27 -30
27 l-30 0 0 -190 0 -190 29 0 29 0 4 139 c3 139 3 140 32 170 33 35 87 42 122
17 17 -13 19 -30 22 -170 l3 -156 30 0 29 0 0 130 c0 173 18 210 103 210 61 0
67 -17 67 -188 l0 -152 31 0 30 0 -3 164 c-3 158 -4 165 -27 190 -47 49 -148
43 -192 -12 -14 -17 -23 -22 -26 -15 -13 38 -41 56 -89 59 -27 2 -56 1 -64 -3z"/>
<path d="M7605 14494 c-16 -8 -38 -25 -47 -37 l-18 -22 0 33 c0 27 -4 32 -25
32 l-25 0 0 -190 0 -190 25 0 25 0 0 108 c0 124 12 175 47 208 34 31 104 33
133 4 18 -18 20 -33 20 -170 l0 -150 30 0 30 0 0 145 c0 172 -10 208 -64 230
-45 19 -93 19 -131 -1z"/>
<path d="M5500 14480 c0 -19 7 -20 100 -20 55 0 100 -2 100 -5 0 -3 -47 -68
-105 -145 -69 -92 -105 -148 -105 -165 l0 -25 140 0 140 0 0 25 0 25 -105 0
c-58 0 -105 2 -105 5 0 3 47 68 105 145 58 77 105 148 105 160 0 19 -6 20
-135 20 -128 0 -135 -1 -135 -20z"/>
<path d="M6032 14347 c2 -127 6 -158 21 -181 42 -63 139 -70 203 -14 l34 30 0
-31 c0 -26 4 -31 25 -31 l25 0 0 190 0 190 -30 0 -30 0 0 -135 0 -135 -29 -32
c-25 -28 -36 -33 -76 -33 -37 0 -51 5 -66 24 -17 20 -19 40 -19 167 l0 144
-31 0 -31 0 4 -153z"/>
<path d="M8110 14310 l0 -190 25 0 25 0 0 190 0 190 -25 0 -25 0 0 -190z"/>
<path d="M4410 13887 c0 -7 9 -23 20 -35 11 -12 20 -24 20 -26 0 -14 192 -271
203 -271 6 -1 11 -6 10 -13 -4 -15 131 -209 166 -241 14 -13 20 -20 12 -16 -9
5 -8 -1 4 -19 17 -25 34 -38 19 -14 -4 7 -3 8 5 4 6 -4 9 -11 6 -16 -3 -5 1
-20 9 -33 15 -22 14 -25 -40 -77 -115 -113 -199 -265 -245 -443 -42 -162 -12
-369 81 -563 62 -128 187 -234 350 -296 83 -32 89 -32 240 -32 141 1 165 3
272 32 65 17 146 44 181 60 167 76 349 242 429 392 72 135 83 176 83 320 0
114 -3 133 -31 211 -42 117 -108 214 -234 340 -96 97 -114 111 -210 158 -163
79 -288 97 -465 66 -105 -19 -212 -61 -290 -116 -32 -22 -58 -39 -59 -37 -2 2
-36 53 -77 113 -105 154 -293 406 -368 493 -58 68 -91 89 -91 59z m319 -431
c-3 -3 -11 5 -18 17 -13 21 -12 21 5 5 10 -10 16 -20 13 -22z m906 -106 c126
-40 256 -118 325 -196 l25 -28 -25 17 c-172 115 -389 177 -580 163 -112 -7
-236 -39 -337 -86 -64 -30 -83 -35 -87 -24 -10 25 86 86 203 131 150 57 338
66 476 23z m-19 -86 c103 -21 217 -65 290 -113 81 -52 181 -155 214 -221 78
-155 109 -350 76 -479 -53 -209 -252 -427 -490 -536 -156 -72 -330 -113 -430
-99 -85 11 -185 37 -179 46 3 6 -4 7 -18 3 -13 -4 -21 -4 -16 1 4 4 -23 20
-59 36 -158 67 -298 218 -363 391 -16 43 -21 80 -21 148 0 110 20 195 71 297
21 42 31 68 23 57 -32 -40 -83 -162 -98 -230 -14 -69 -14 -69 -15 -23 -2 84
27 197 73 294 52 105 159 228 259 296 112 76 257 132 392 152 53 8 210 -3 291
-20z m-696 -99 c0 -3 -45 -49 -99 -103 -55 -53 -92 -84 -83 -68 41 70 182 203
182 171z m-89 -1169 c76 -69 153 -115 246 -150 77 -28 73 -34 -8 -10 -129 38
-281 148 -348 252 -42 67 -39 74 7 15 22 -27 68 -75 103 -107z"/>
<path d="M5490 12801 c-83 -27 -148 -92 -177 -175 -21 -61 -24 -210 -5 -273 7
-22 27 -63 45 -89 79 -118 270 -147 397 -62 96 65 141 226 109 380 -20 95 -67
161 -144 201 -44 22 -179 33 -225 18z m187 -80 c71 -33 112 -119 113 -236 0
-64 -24 -159 -50 -195 -46 -64 -164 -89 -245 -51 -85 39 -118 104 -119 236 -1
137 29 206 106 244 55 27 138 28 195 2z"/>
<path d="M5488 11853 c6 -2 18 -2 25 0 6 3 1 5 -13 5 -14 0 -19 -2 -12 -5z"/>
<path d="M5350 11840 l-75 -6 70 -1 c39 0 84 3 100 7 26 7 27 8 5 7 -14 0 -59
-3 -100 -7z"/>
<path d="M6540 12533 l0 -107 -30 29 c-62 59 -182 38 -230 -40 -28 -45 -37
-139 -20 -200 33 -119 166 -160 252 -79 l28 28 0 -32 c0 -29 3 -32 30 -32 l30
0 0 270 0 270 -30 0 -30 0 0 -107z m-61 -108 c37 -19 61 -71 61 -135 0 -54
-10 -81 -43 -117 -44 -49 -136 -34 -168 27 -22 40 -25 120 -8 169 21 60 98 88
158 56z"/>
<path d="M10380 12626 c-20 -25 -8 -61 22 -64 36 -4 53 26 32 56 -18 25 -37
28 -54 8z"/>
<path d="M7144 12516 c-12 -39 -21 -44 -62 -33 -138 37 -242 -111 -145 -207
14 -15 24 -27 22 -29 -2 -1 -13 -7 -24 -13 -26 -14 -31 -60 -10 -84 16 -18 15
-19 -13 -34 -71 -37 -50 -138 34 -166 58 -19 184 -8 222 19 44 31 61 90 39
136 -19 40 -60 55 -153 55 -71 0 -105 18 -88 47 8 13 28 20 70 24 70 7 112 31
130 76 19 43 17 72 -4 108 -18 29 -18 30 4 50 12 11 25 30 28 41 5 17 2 23
-18 26 -20 4 -27 0 -32 -16z m-46 -96 c22 -21 30 -82 14 -106 -24 -37 -97 -44
-130 -14 -29 27 -30 92 -2 120 27 27 89 27 118 0z m48 -330 c22 -19 17 -56
-12 -79 -21 -16 -41 -21 -91 -21 -72 0 -100 11 -112 43 -11 27 3 55 32 68 29
12 164 4 183 -11z"/>
<path d="M7555 12476 c-75 -33 -117 -136 -96 -235 21 -99 75 -144 171 -144 96
0 150 45 171 144 22 100 -21 203 -98 235 -41 17 -109 17 -148 0z m129 -48 c14
-6 33 -22 42 -35 22 -35 29 -120 12 -168 -15 -45 -66 -85 -108 -85 -42 0 -93
40 -108 85 -15 44 -11 115 9 159 23 49 96 71 153 44z"/>
<path d="M8745 12476 c-116 -52 -143 -239 -48 -338 49 -51 161 -58 229 -13 52
33 83 168 58 247 -28 93 -147 145 -239 104z m152 -69 c31 -31 44 -96 32 -161
-11 -58 -29 -81 -75 -96 -45 -15 -85 -5 -118 29 -33 35 -46 125 -26 185 25 76
130 100 187 43z"/>
<path d="M9413 12483 c-12 -2 -33 -16 -47 -30 l-26 -26 0 27 c0 22 -4 26 -30
26 l-30 0 0 -190 0 -190 29 0 29 0 4 139 c3 133 4 141 28 166 21 23 32 26 72
23 43 -3 48 -1 53 21 9 36 -16 47 -82 34z"/>
<path d="M9875 12474 c-16 -8 -38 -25 -47 -37 l-18 -22 0 33 c0 27 -4 32 -25
32 l-25 0 0 -190 0 -190 25 0 25 0 0 108 c0 124 12 175 47 208 34 31 104 33
133 4 18 -18 20 -33 20 -170 l0 -150 30 0 30 0 0 145 c0 172 -10 208 -64 230
-45 19 -93 19 -131 -1z"/>
<path d="M8064 12418 c13 -35 45 -121 72 -191 l49 -128 39 3 40 3 72 188 72
188 -31 -3 c-31 -3 -33 -7 -87 -150 -30 -81 -59 -148 -65 -148 -5 0 -35 66
-66 147 -55 145 -57 148 -88 151 l-31 3 24 -63z"/>
<path d="M10380 12290 l0 -190 25 0 25 0 0 190 0 190 -25 0 -25 0 0 -190z"/>
<path d="M5704 11838 c7 -18 19 -32 25 -30 7 1 10 -2 7 -6 -8 -13 193 -288
207 -284 7 2 9 0 5 -3 -10 -10 11 -47 22 -40 6 3 7 0 4 -8 -3 -8 3 -20 12 -28
12 -9 15 -10 10 -1 -4 6 -5 12 -2 12 3 0 10 -10 17 -21 9 -17 8 -20 -2 -14
-15 10 -9 0 55 -90 51 -72 76 -102 61 -75 -5 9 -4 12 1 7 5 -5 9 -16 9 -25 0
-9 7 -17 15 -17 8 -1 14 -7 12 -14 -1 -7 7 -25 18 -41 l21 -29 -43 -22 c-75
-38 -161 -104 -233 -180 -48 -51 -63 -63 -49 -39 28 50 170 191 237 235 31 21
55 40 52 43 -9 9 -155 -110 -219 -179 -74 -80 -139 -198 -188 -340 -30 -87
-32 -103 -32 -224 0 -114 4 -141 28 -220 42 -138 97 -247 150 -299 31 -29 42
-47 35 -52 -19 -11 -200 -394 -193 -406 5 -7 2 -8 -6 -3 -10 6 -12 4 -7 -9 4
-9 3 -15 -1 -12 -11 7 -84 -143 -76 -156 4 -7 2 -8 -4 -4 -11 7 -17 -6 -13
-28 1 -5 -5 -6 -13 -3 -49 19 -184 28 -269 17 -50 -6 -93 -13 -96 -15 -6 -7 1
-6 103 5 83 10 220 1 247 -16 5 -3 2 -18 -6 -35 -14 -25 -19 -28 -43 -22 -15
4 -79 7 -142 6 -235 -3 -432 -81 -601 -240 -36 -35 -69 -60 -72 -57 -18 18
-115 -193 -147 -321 -41 -163 -15 -355 73 -550 22 -49 52 -92 101 -142 58 -61
67 -75 56 -88 -7 -8 -9 -15 -4 -15 4 0 1 -6 -8 -12 -24 -20 -171 -230 -171
-245 0 -7 -3 -11 -5 -8 -7 7 -42 -47 -36 -56 2 -4 -1 -11 -7 -15 -8 -5 -9 -3
-4 6 6 9 4 11 -4 6 -7 -5 -10 -14 -7 -22 3 -8 0 -13 -6 -11 -6 1 -33 -29 -60
-67 -27 -37 -43 -65 -36 -61 7 4 1 -3 -13 -16 -15 -13 -39 -41 -55 -62 -23
-33 -26 -42 -16 -58 7 -10 11 -19 9 -19 -1 0 -38 16 -82 35 -123 53 -208 69
-339 62 -61 -4 -138 -14 -171 -22 -177 -48 -387 -201 -493 -359 -57 -86 -127
-258 -148 -364 -18 -91 -13 -189 17 -307 23 -89 71 -212 104 -265 46 -72 197
-194 276 -222 16 -5 29 -14 29 -18 0 -5 -19 -23 -42 -42 -93 -73 -253 -220
-250 -229 1 -6 -2 -8 -8 -4 -5 3 -10 1 -10 -4 0 -6 -6 -11 -12 -11 -7 0 -44
-29 -82 -65 -39 -35 -76 -67 -82 -69 -7 -3 -52 2 -99 11 -156 31 -368 -6 -514
-88 -84 -48 -216 -156 -272 -224 -89 -107 -183 -329 -198 -466 -15 -139 23
-320 99 -476 31 -64 55 -95 109 -145 136 -126 256 -177 436 -185 388 -18 778
193 936 508 80 160 98 300 60 452 -27 102 -61 172 -133 269 -100 135 -226 245
-335 292 -24 11 -43 22 -43 26 0 4 64 63 143 131 78 68 185 165 237 216 l95
93 72 -15 c221 -46 533 27 755 176 35 23 100 80 146 126 69 70 91 102 137 192
107 215 110 403 7 606 -54 108 -197 274 -297 346 l-44 32 52 57 c73 78 392
541 409 592 2 6 33 -6 68 -25 169 -93 386 -103 637 -32 180 52 309 129 443
265 64 66 97 109 133 178 61 117 76 167 84 279 13 203 -53 361 -235 562 -81
89 -169 157 -256 197 -59 27 -65 37 -43 69 50 75 248 528 250 571 l1 32 51
-39 c172 -130 404 -161 677 -90 198 51 389 165 510 303 71 81 152 232 174 323
48 206 -9 414 -168 610 -133 163 -276 260 -453 305 -131 34 -300 20 -455 -36
-39 -14 -73 -24 -74 -22 -2 2 -22 32 -46 68 -56 83 -280 389 -333 455 -102
125 -163 173 -133 103z m1009 -572 c136 -26 286 -106 372 -197 l40 -43 -38 28
c-60 44 -197 104 -288 126 -168 40 -359 36 -496 -11 -52 -18 -53 -17 -63 2 -6
11 -8 24 -5 29 3 5 43 21 88 35 144 45 267 54 390 31z m75 -106 c236 -57 415
-190 490 -365 86 -200 95 -380 29 -538 -30 -71 -109 -176 -191 -255 -130 -124
-217 -176 -404 -239 -91 -30 -124 -37 -222 -41 -98 -4 -127 -1 -197 18 -46 12
-80 26 -77 31 3 5 -2 6 -10 3 -9 -3 -16 -2 -16 3 0 5 -25 20 -56 33 -155 64
-322 263 -365 433 -27 111 6 296 78 427 14 25 17 36 8 25 -38 -45 -76 -138
-101 -245 l-13 -55 5 85 c12 177 79 317 218 455 94 93 225 181 254 170 8 -3
25 3 36 13 73 67 344 88 534 42z m-895 -1182 c80 -95 202 -184 311 -224 34
-13 53 -23 44 -23 -31 -1 -147 47 -206 86 -74 49 -161 136 -191 193 -27 50
-25 49 42 -32z m-127 -813 c68 -33 204 -138 204 -155 0 -5 -17 2 -37 16 -55
38 -140 79 -203 98 -30 10 -61 19 -67 21 -16 5 4 55 22 55 7 0 43 -16 81 -35z
m-185 -35 c23 -12 40 -15 46 -9 6 6 35 1 79 -12 185 -57 350 -183 419 -318 12
-25 35 -84 51 -131 24 -74 27 -102 28 -210 1 -139 -12 -191 -76 -298 -40 -67
-171 -208 -250 -269 -163 -125 -439 -215 -608 -199 -86 9 -181 36 -173 49 4 6
-2 8 -15 5 -12 -4 -20 -2 -16 3 3 5 -1 9 -8 9 -39 0 -161 73 -228 137 -144
134 -210 270 -210 429 0 123 31 224 112 364 l20 35 -21 -25 c-37 -45 -100
-183 -115 -255 -14 -69 -14 -69 -15 -23 -2 86 27 198 75 296 97 195 304 359
525 417 140 37 312 39 380 5z m-845 -288 c-18 -16 -18 -16 -6 6 6 13 14 21 18
18 3 -4 -2 -14 -12 -24z m210 -1065 c34 -19 90 -45 123 -58 84 -30 69 -36 -20
-8 -124 39 -283 160 -337 257 -19 35 -7 26 75 -57 56 -56 124 -113 159 -134z
m-766 -582 c100 -24 255 -105 325 -171 45 -42 51 -51 25 -35 -183 112 -354
157 -560 148 -137 -6 -214 -25 -335 -82 -107 -50 -193 -113 -271 -198 -42 -46
-52 -53 -38 -28 33 58 165 184 260 248 92 60 194 102 299 122 79 14 224 12
295 -4z m-10 -90 c268 -47 472 -189 556 -385 135 -320 82 -549 -183 -800 -100
-95 -160 -134 -291 -190 -119 -52 -189 -70 -298 -77 -98 -6 -238 12 -212 28 8
6 -1 7 -22 3 -28 -4 -32 -3 -20 6 12 9 11 10 -7 5 -15 -4 -23 -2 -23 5 0 7 -7
10 -15 6 -8 -3 -15 -1 -15 5 0 6 -8 8 -17 5 -10 -4 -14 -4 -11 -1 4 4 -25 23
-63 42 -124 62 -255 209 -316 353 -23 57 -27 78 -27 170 0 88 5 118 28 185 15
44 41 105 57 135 16 30 23 46 14 35 -31 -38 -77 -138 -95 -209 l-19 -71 0 46
c-1 77 19 160 64 254 110 237 352 411 635 458 59 10 201 6 280 -8z m-640
-1360 c35 -22 92 -50 125 -62 54 -21 56 -23 20 -18 -22 3 -77 24 -123 47 -95
47 -212 149 -251 218 -21 38 -12 31 70 -52 52 -53 123 -112 159 -133z m-477
-515 c37 -11 38 -12 22 -30 -9 -10 -14 -24 -9 -31 5 -9 0 -10 -18 -6 -61 16
-199 19 -283 7 -219 -31 -385 -117 -534 -276 -49 -53 -66 -66 -51 -42 54 92
233 254 344 310 65 33 146 59 231 74 87 15 237 12 298 -6z m160 -61 c63 -32
166 -108 202 -150 l20 -23 -25 17 c-95 64 -255 136 -310 137 l-25 1 30 24 c17
14 34 25 38 25 4 0 36 -14 70 -31z m-198 -24 c122 -20 186 -40 275 -86 156
-81 254 -185 309 -329 60 -156 75 -286 45 -410 -44 -189 -241 -411 -459 -519
-156 -78 -242 -103 -366 -109 -116 -5 -270 14 -234 29 14 6 9 7 -15 3 -27 -4
-32 -3 -20 6 12 8 8 9 -15 4 -23 -4 -26 -3 -15 5 13 9 13 11 -1 11 -9 0 -54
18 -99 41 -142 71 -270 217 -329 374 -45 119 -25 292 50 443 21 42 31 68 23
57 -44 -56 -96 -189 -107 -270 -2 -17 -5 -5 -5 25 -2 86 23 187 74 290 40 81
61 109 143 191 142 142 268 209 457 243 104 19 180 19 289 1z m-623 -1363 c31
-19 83 -45 115 -59 47 -20 51 -23 23 -19 -19 3 -73 25 -119 47 -65 32 -102 59
-160 118 -42 42 -84 91 -94 109 -13 22 14 1 80 -65 54 -54 124 -113 155 -131z"/>
<path d="M6655 10647 c-48 -19 -61 -29 -89 -71 -32 -48 -34 -101 -6 -157 24
-47 64 -73 140 -95 175 -49 200 -66 200 -136 0 -76 -52 -118 -145 -118 -60 0
-110 22 -153 67 l-35 37 -23 -28 -24 -27 22 -29 c13 -16 48 -42 78 -57 46 -23
68 -28 130 -28 90 0 140 16 177 56 79 83 65 218 -29 272 -23 14 -83 36 -131
48 -115 28 -147 54 -147 115 0 53 21 78 81 94 66 18 138 1 187 -44 l23 -21 19
25 c11 14 20 28 20 32 0 12 -63 55 -99 67 -43 14 -157 13 -196 -2z"/>
<path d="M6558 9743 c6 -2 18 -2 25 0 6 3 1 5 -13 5 -14 0 -19 -2 -12 -5z"/>
<path d="M6438 9733 c18 -2 45 -2 60 0 15 2 0 4 -33 4 -33 0 -45 -2 -27 -4z"/>
<path d="M5430 8700 l0 -30 100 0 100 0 0 -290 0 -290 35 0 35 0 0 290 0 290
105 0 105 0 0 30 0 30 -240 0 -240 0 0 -30z"/>
<path d="M5488 7723 c6 -2 18 -2 25 0 6 3 1 5 -13 5 -14 0 -19 -2 -12 -5z"/>
<path d="M5365 7710 l-60 -7 55 0 c30 0 69 3 85 7 26 7 27 8 5 7 -14 0 -52 -3
-85 -7z"/>
<path d="M5208 7703 c6 -2 18 -2 25 0 6 3 1 5 -13 5 -14 0 -19 -2 -12 -5z"/>
<path d="M4210 6691 c-78 -24 -132 -72 -169 -151 -23 -48 -26 -68 -26 -160 0
-123 18 -186 70 -247 77 -90 233 -116 348 -59 102 50 151 146 151 296 0 213
-106 332 -293 329 -31 0 -67 -4 -81 -8z m186 -80 c74 -34 107 -107 107 -236 0
-108 -22 -174 -74 -219 -101 -86 -263 -49 -315 73 -38 88 -27 250 22 324 47
72 169 99 260 58z"/>
<path d="M4098 5693 c7 -3 16 -2 19 1 4 3 -2 6 -13 5 -11 0 -14 -3 -6 -6z"/>
<path d="M4048 5683 c6 -2 18 -2 25 0 6 3 1 5 -13 5 -14 0 -19 -2 -12 -5z"/>
<path d="M3983 5673 c9 -2 25 -2 35 0 9 3 1 5 -18 5 -19 0 -27 -2 -17 -5z"/>
<path d="M3878 5663 c12 -2 32 -2 45 0 12 2 2 4 -23 4 -25 0 -35 -2 -22 -4z"/>
<path d="M2880 4411 l0 -321 40 0 40 0 0 146 0 146 85 -3 c111 -5 122 -16 173
-169 l39 -115 36 -3 c20 -2 37 0 37 4 0 5 -17 60 -37 123 -29 88 -46 123 -71
149 -19 18 -32 34 -30 35 1 1 20 11 41 22 98 49 104 201 11 271 -37 29 -38 29
-201 32 l-163 3 0 -320z m295 244 c54 -22 73 -102 40 -165 -19 -37 -64 -50
-172 -50 l-83 0 0 115 0 115 90 0 c57 0 104 -5 125 -15z"/>
<path d="M2928 3723 c7 -3 16 -2 19 1 4 3 -2 6 -13 5 -11 0 -14 -3 -6 -6z"/>
<path d="M2628 3713 c7 -3 16 -2 19 1 4 3 -2 6 -13 5 -11 0 -14 -3 -6 -6z"/>
<path d="M2863 3713 c9 -2 23 -2 30 0 6 3 -1 5 -18 5 -16 0 -22 -2 -12 -5z"/>
<path d="M2678 3703 c6 -2 18 -2 25 0 6 3 1 5 -13 5 -14 0 -19 -2 -12 -5z"/>
<path d="M2753 3703 c15 -2 39 -2 55 0 15 2 2 4 -28 4 -30 0 -43 -2 -27 -4z"/>
<path d="M7566 10534 c-20 -19 -20 -38 -1 -54 23 -19 65 -4 65 23 0 43 -35 60
-64 31z"/>
<path d="M11396 10537 c-36 -26 4 -84 42 -61 24 16 27 45 6 61 -10 7 -21 13
-24 13 -3 0 -14 -6 -24 -13z"/>
<path d="M11810 10544 c0 -4 17 -29 37 -55 51 -67 77 -67 133 4 34 42 39 53
25 55 -9 2 -34 -10 -55 -26 l-37 -31 -34 29 c-31 27 -69 39 -69 24z"/>
<path d="M12956 10534 c-20 -19 -20 -38 -1 -54 23 -19 65 -4 65 23 0 43 -35
60 -64 31z"/>
<path d="M8487 10473 c-4 -3 -7 -24 -7 -45 0 -36 -2 -38 -30 -38 -23 0 -30 -4
-30 -20 0 -16 7 -20 30 -20 l30 0 0 -117 c0 -65 5 -135 11 -156 17 -63 86 -91
153 -63 33 14 36 18 26 36 -7 13 -17 19 -27 16 -45 -18 -62 -17 -82 3 -19 19
-21 33 -21 151 l0 130 60 0 c53 0 60 2 60 20 0 16 -8 19 -57 22 l-58 3 -3 43
c-3 36 -6 42 -26 42 -12 0 -26 -3 -29 -7z"/>
<path d="M10938 10438 c-3 -40 -5 -43 -35 -46 -25 -2 -33 -8 -33 -23 0 -15 7
-19 35 -19 l35 0 0 -135 c0 -79 5 -144 11 -159 11 -24 63 -56 91 -56 30 0 88
22 88 33 -1 29 -16 38 -48 26 -26 -9 -37 -8 -57 5 -25 16 -25 19 -25 151 l0
135 60 0 c53 0 60 2 60 20 0 18 -7 20 -60 20 l-60 0 0 45 c0 43 -1 45 -29 45
-28 0 -30 -3 -33 -42z"/>
<path d="M7974 10386 c-40 -18 -64 -52 -64 -92 0 -51 32 -81 113 -105 103 -30
126 -57 92 -106 -29 -42 -112 -37 -162 9 -19 17 -25 19 -38 8 -21 -17 -19 -33
8 -57 51 -48 189 -50 231 -4 38 42 36 119 -4 156 -10 9 -50 26 -87 36 -62 17
-103 45 -103 70 0 5 9 18 20 29 27 27 98 27 132 0 25 -19 26 -19 42 -1 15 16
15 19 -1 33 -47 40 -119 50 -179 24z"/>
<path d="M9000 10377 c-30 -16 -51 -37 -67 -67 -45 -84 -23 -232 41 -273 71
-47 185 -40 231 15 29 35 31 44 9 52 -9 4 -28 -4 -45 -19 -80 -67 -199 -19
-199 80 l0 25 136 0 137 0 -6 62 c-6 70 -27 105 -78 130 -47 25 -107 23 -159
-5z m133 -38 c28 -13 47 -48 47 -84 0 -25 0 -25 -105 -25 -114 0 -114 0 -94
59 18 53 93 77 152 50z"/>
<path d="M9632 10384 c-19 -10 -36 -23 -39 -31 -9 -22 -23 -15 -23 12 0 20 -5
25 -25 25 l-25 0 0 -190 0 -190 29 0 30 0 3 146 c3 146 3 146 31 170 35 30 96
33 120 6 14 -16 17 -43 17 -170 l0 -152 30 0 30 0 0 119 c0 126 8 161 42 199
25 26 83 30 114 8 17 -13 19 -30 22 -170 l3 -156 31 0 30 0 -4 158 c-2 97 -9
165 -16 179 -34 62 -140 69 -195 14 l-31 -30 -26 30 c-32 39 -97 49 -148 23z"/>
<path d="M10405 10381 c-22 -10 -46 -26 -54 -35 -12 -15 -12 -19 2 -33 15 -16
18 -15 42 7 18 17 40 25 79 28 49 4 55 2 71 -21 10 -15 14 -34 10 -46 -6 -20
-19 -25 -125 -55 -86 -24 -123 -80 -100 -151 15 -46 54 -69 117 -69 44 -1 56
3 84 29 21 20 33 26 36 17 10 -26 36 -42 69 -42 31 0 35 3 32 23 -2 13 -10 22
-21 22 -30 0 -37 26 -37 156 0 113 -2 127 -21 148 -42 45 -115 54 -184 22z
m155 -207 c0 -48 -25 -99 -56 -113 -38 -17 -82 -13 -104 9 -40 40 -14 103 47
115 16 3 42 10 58 14 51 15 55 13 55 -25z"/>
<path d="M11829 10377 c-59 -32 -91 -93 -90 -175 0 -70 17 -117 57 -154 73
-67 209 -54 250 24 15 30 15 32 -2 45 -16 12 -21 10 -42 -17 -50 -64 -151 -59
-187 11 -22 41 -22 136 -1 177 34 67 137 82 183 27 20 -22 25 -24 43 -13 25
16 25 19 -1 47 -50 54 -138 66 -210 28z"/>
<path d="M12454 10386 c-17 -8 -39 -24 -48 -37 l-16 -23 0 32 c0 29 -3 32 -30
32 l-30 0 0 -190 0 -190 30 0 30 0 0 120 c0 171 26 220 115 220 76 0 85 -21
85 -199 l0 -141 31 0 31 0 -4 158 c-2 131 -6 161 -21 184 -31 46 -110 61 -173
34z"/>
<path d="M7560 10200 l0 -190 30 0 30 0 0 190 0 190 -30 0 -30 0 0 -190z"/>
<path d="M11390 10200 l0 -190 30 0 30 0 0 190 0 190 -30 0 -30 0 0 -190z"/>
<path d="M12950 10200 l0 -190 30 0 30 0 0 190 0 190 -30 0 -30 0 0 -190z"/>
<path d="M5151 9205 c-110 -41 -295 -178 -373 -278 -18 -23 5 -3 52 44 106
106 236 193 344 230 44 15 72 28 61 28 -11 0 -49 -11 -84 -24z"/>
<path d="M6960 8394 c0 -143 4 -253 10 -264 21 -38 130 -51 116 -13 -3 8 -6
19 -6 24 0 6 -8 8 -17 5 -45 -14 -48 -1 -51 254 l-3 240 -25 0 -24 0 0 -246z"/>
<path d="M10686 8624 c-20 -19 -20 -38 -1 -54 23 -19 65 -4 65 23 0 43 -35 60
-64 31z"/>
<path d="M9617 8563 c-4 -3 -7 -24 -7 -45 0 -37 -1 -38 -35 -38 -28 0 -35 -4
-35 -20 0 -16 7 -20 34 -20 l35 0 3 -144 c3 -135 5 -146 26 -169 29 -31 73
-40 123 -27 38 11 46 23 31 48 -7 9 -16 10 -40 1 -26 -9 -37 -8 -57 5 -25 16
-25 19 -25 151 l0 135 60 0 c53 0 60 2 60 20 0 18 -7 20 -60 20 l-60 0 0 45
c0 40 -2 45 -23 45 -13 0 -27 -3 -30 -7z"/>
<path d="M6410 8467 c-61 -32 -90 -89 -90 -177 0 -124 63 -194 175 -194 112 0
175 70 175 194 0 121 -69 200 -175 200 -24 0 -60 -10 -85 -23z m168 -61 c23
-22 27 -36 30 -99 2 -55 -1 -80 -15 -107 -40 -76 -157 -76 -195 0 -39 77 -14
205 45 230 39 17 107 5 135 -24z"/>
<path d="M7424 8475 c-76 -34 -116 -134 -95 -237 21 -98 74 -141 172 -141 61
0 113 24 137 64 12 18 12 23 0 30 -20 13 -31 11 -55 -15 -38 -40 -114 -44
-157 -7 -20 17 -46 71 -46 96 0 13 20 15 135 15 l135 0 0 51 c0 28 -8 67 -17
86 -29 62 -133 91 -209 58z m133 -50 c23 -16 48 -78 38 -95 -6 -10 -197 -15
-207 -4 -12 11 12 69 37 92 31 26 99 30 132 7z"/>
<path d="M8054 8476 c-17 -8 -39 -24 -48 -37 l-16 -23 0 32 c0 29 -3 32 -30
32 l-30 0 0 -190 0 -190 29 0 29 0 4 134 c3 119 6 138 24 163 19 24 28 28 73
28 46 0 53 3 58 24 10 40 -34 53 -93 27z"/>
<path d="M8455 8471 c-22 -10 -46 -26 -54 -35 -12 -15 -12 -19 2 -33 15 -16
18 -15 42 7 18 17 40 25 79 28 49 4 55 2 71 -21 10 -15 14 -34 10 -46 -6 -20
-19 -25 -125 -55 -86 -24 -123 -80 -100 -151 15 -46 54 -69 117 -69 44 -1 56
3 84 29 21 20 33 26 36 17 10 -26 36 -42 69 -42 31 0 35 3 32 23 -2 13 -10 22
-21 22 -30 0 -37 26 -37 156 0 113 -2 127 -21 148 -42 45 -115 54 -184 22z
m155 -207 c0 -48 -25 -99 -56 -113 -38 -17 -82 -13 -104 9 -40 40 -14 103 47
115 16 3 42 10 58 14 51 15 55 13 55 -25z"/>
<path d="M9095 8474 c-16 -8 -38 -25 -47 -37 l-18 -22 0 33 c0 27 -4 32 -25
32 l-25 0 0 -190 0 -190 25 0 25 0 0 108 c0 124 12 175 47 208 34 31 104 33
133 4 18 -18 20 -33 20 -170 l0 -150 30 0 30 0 0 145 c0 172 -10 208 -64 230
-45 19 -93 19 -131 -1z"/>
<path d="M10184 8476 c-17 -8 -39 -24 -48 -37 l-16 -23 0 32 c0 29 -3 32 -30
32 l-30 0 0 -190 0 -190 30 0 30 0 0 120 c0 171 26 220 115 220 76 0 85 -21
85 -199 l0 -141 31 0 31 0 -4 158 c-2 131 -6 161 -21 184 -31 46 -110 61 -173
34z"/>
<path d="M10680 8290 l0 -190 30 0 30 0 0 190 0 190 -30 0 -30 0 0 -190z"/>
<path d="M7020 6595 c-26 -32 13 -81 48 -59 23 15 26 38 7 58 -20 20 -39 20
-55 1z"/>
<path d="M9996 6597 c-36 -26 4 -84 42 -61 24 16 27 45 6 61 -10 7 -21 13 -24
13 -3 0 -14 -6 -24 -13z"/>
<path d="M5634 6486 c-12 -39 -21 -44 -62 -33 -138 37 -242 -111 -145 -207 14
-15 24 -27 22 -29 -2 -1 -13 -7 -24 -13 -26 -14 -31 -60 -10 -84 16 -18 15
-19 -13 -34 -71 -37 -50 -138 34 -166 58 -19 184 -8 222 19 44 31 61 90 39
136 -19 40 -60 55 -153 55 -71 0 -105 18 -88 47 8 13 28 20 70 24 70 7 112 31
130 76 19 43 17 72 -4 108 -18 29 -18 30 4 50 12 11 25 30 28 41 5 17 2 23
-18 26 -20 4 -27 0 -32 -16z m-46 -96 c22 -21 30 -82 14 -106 -24 -37 -97 -44
-130 -14 -29 27 -30 92 -2 120 27 27 89 27 118 0z m48 -330 c22 -19 17 -56
-12 -79 -21 -16 -41 -21 -91 -21 -72 0 -100 11 -112 43 -11 27 3 55 32 68 29
12 164 4 183 -11z"/>
<path d="M5104 6446 c-17 -8 -39 -24 -48 -37 l-16 -23 0 32 c0 29 -3 32 -30
32 l-30 0 0 -190 0 -190 29 0 29 0 4 134 c3 119 6 138 24 163 19 24 28 28 73
28 46 0 53 3 58 24 10 40 -34 53 -93 27z"/>
<path d="M5985 6450 c-50 -17 -78 -44 -70 -68 8 -28 20 -28 57 3 67 56 188 12
142 -53 -8 -12 -35 -25 -66 -32 -81 -18 -128 -41 -144 -71 -32 -64 -2 -140 63
-158 64 -18 92 -12 139 31 21 19 21 19 38 -7 12 -18 25 -25 50 -25 18 0 35 3
38 6 9 9 -3 44 -14 38 -5 -3 -15 0 -23 6 -12 10 -15 41 -15 141 0 126 -1 129
-27 159 -23 26 -37 32 -83 35 -30 2 -68 0 -85 -5z m145 -210 c0 -42 -23 -94
-51 -114 -54 -37 -129 -7 -129 52 0 39 26 60 90 72 29 6 56 12 58 15 15 15 32
2 32 -25z"/>
<path d="M6565 6444 c-16 -8 -38 -25 -47 -37 l-18 -22 0 33 c0 27 -4 32 -25
32 l-25 0 0 -190 0 -190 25 0 25 0 0 108 c0 124 12 175 47 208 34 31 104 33
133 4 18 -18 20 -33 20 -170 l0 -150 30 0 30 0 0 145 c0 172 -10 208 -64 230
-45 19 -93 19 -131 -1z"/>
<path d="M7868 6440 c-65 -35 -90 -85 -89 -180 0 -143 92 -221 222 -190 161
39 177 310 22 376 -45 19 -111 17 -155 -6z m148 -49 c41 -25 58 -76 51 -154
-4 -50 -11 -65 -36 -91 -26 -25 -40 -31 -75 -31 -62 0 -98 29 -113 90 -37 145
64 253 173 186z"/>
<path d="M8945 6441 c-22 -10 -46 -26 -54 -35 -12 -15 -12 -19 2 -33 15 -16
18 -15 42 7 18 17 40 25 79 28 49 4 55 2 71 -21 10 -15 14 -34 10 -46 -6 -20
-19 -25 -125 -55 -86 -24 -123 -80 -100 -151 15 -46 54 -69 117 -69 44 -1 56
3 84 29 21 20 33 26 36 17 10 -26 36 -42 69 -42 31 0 35 3 32 23 -2 13 -10 22
-21 22 -30 0 -37 26 -37 156 0 113 -2 127 -21 148 -42 45 -115 54 -184 22z
m155 -207 c0 -48 -25 -99 -56 -113 -38 -17 -82 -13 -104 9 -40 40 -14 103 47
115 16 3 42 10 58 14 51 15 55 13 55 -25z"/>
<path d="M9545 6448 c-11 -6 -32 -22 -47 -36 l-28 -26 0 32 c0 27 -4 32 -25
32 l-25 0 0 -190 0 -190 30 0 30 0 0 136 0 136 34 34 c26 26 42 34 71 34 80 0
95 -33 95 -217 l0 -123 25 0 25 0 0 153 c0 101 -4 160 -13 177 -24 49 -122 76
-172 48z"/>
<path d="M7020 6260 l0 -190 30 0 30 0 0 190 0 190 -30 0 -30 0 0 -190z"/>
<path d="M7310 6430 c0 -19 7 -20 100 -20 55 0 100 -2 100 -5 0 -3 -47 -68
-105 -145 -69 -92 -105 -148 -105 -165 l0 -25 140 0 140 0 0 25 0 25 -105 0
c-58 0 -105 2 -105 5 0 3 47 68 105 145 58 77 105 148 105 160 0 19 -6 20
-135 20 -128 0 -135 -1 -135 -20z"/>
<path d="M8320 6442 c0 -4 31 -88 69 -187 l69 -180 41 -3 c23 -2 41 -1 41 1 0
2 32 86 70 188 39 101 70 185 70 186 0 2 -13 3 -29 3 -28 0 -30 -4 -86 -155
-32 -85 -61 -155 -65 -155 -4 0 -33 70 -65 155 -56 150 -59 155 -87 155 -15 0
-28 -3 -28 -8z"/>
<path d="M9990 6260 l0 -190 30 0 30 0 0 190 0 190 -30 0 -30 0 0 -190z"/>
<path d="M4970 4334 c0 -143 4 -253 10 -264 21 -38 130 -51 116 -13 -3 8 -6
19 -6 24 0 6 -8 8 -17 5 -45 -14 -48 -1 -51 254 l-3 240 -25 0 -24 0 0 -246z"/>
<path d="M5980 4566 c-20 -25 -8 -61 22 -64 36 -4 53 26 32 56 -18 25 -37 28
-54 8z"/>
<path d="M3884 4415 c-76 -34 -116 -134 -95 -237 21 -98 74 -141 172 -141 61
0 113 24 137 64 12 18 12 23 0 30 -20 13 -31 11 -55 -15 -38 -40 -114 -44
-157 -7 -20 17 -46 71 -46 96 0 13 20 15 135 15 l135 0 0 51 c0 28 -8 67 -17
86 -29 62 -133 91 -209 58z m133 -50 c23 -16 48 -78 38 -95 -6 -10 -197 -15
-207 -4 -12 11 12 69 37 92 31 26 99 30 132 7z"/>
<path d="M4445 4411 c-22 -10 -46 -26 -54 -35 -12 -15 -12 -19 1 -32 13 -14
19 -13 53 10 68 47 155 29 155 -32 0 -26 -33 -44 -114 -62 -81 -17 -116 -51
-116 -113 0 -109 131 -156 211 -76 15 15 24 19 27 11 8 -26 35 -42 68 -42 31
0 35 3 32 23 -2 14 -10 22 -23 22 -19 0 -20 8 -25 135 -3 85 -10 144 -18 158
-29 50 -125 66 -197 33z m155 -213 c0 -83 -59 -133 -134 -114 -47 12 -54 102
-9 121 15 6 104 28 136 34 4 0 7 -18 7 -41z"/>
<path d="M5475 4414 c-16 -8 -38 -25 -47 -37 l-18 -22 0 33 c0 27 -4 32 -25
32 l-25 0 0 -190 0 -190 25 0 25 0 0 108 c0 124 12 175 47 208 34 31 104 33
133 4 18 -18 20 -33 20 -170 l0 -150 30 0 30 0 0 145 c0 172 -10 208 -64 230
-45 19 -93 19 -131 -1z"/>
<path d="M5980 4230 l0 -190 25 0 25 0 0 190 0 190 -25 0 -25 0 0 -190z"/>
</g>
</svg>
